# Blender v2.76 (sub 0) OBJ File: 'front.blend'
# www.blender.org
mtllib front.mtl
o Cube.001
v 0.077500 -0.112500 -0.050000
v 0.077500 -0.112500 0.050000
v 0.077500 -0.112500 0.050000
v 0.077500 -0.112500 -0.050000
v -0.172500 -0.112500 0.050000
v -0.172500 -0.112500 -0.050000
v -0.172500 -0.112500 -0.050000
v 0.077500 -0.065110 0.050000
v 0.077500 -0.012500 0.050000
v -0.172500 -0.012500 0.050000
v -0.172500 -0.112500 0.050000
v -0.172500 -0.082131 -0.050000
v -0.172500 -0.012500 -0.050000
v 0.077500 -0.112500 -0.050000
v 0.077500 -0.012500 0.050000
v 0.077500 -0.012500 -0.050000
v -0.172500 -0.112500 0.050000
v -0.172500 -0.112500 -0.050000
v -0.182255 -0.112500 0.049039
v -0.191634 -0.112500 0.046194
v -0.200279 -0.112500 0.041573
v -0.207855 -0.112500 0.035355
v -0.214074 -0.112500 0.027778
v -0.218694 -0.112500 0.019134
v -0.221539 -0.112500 0.009754
v -0.222500 -0.112500 -0.000000
v -0.221539 -0.112500 -0.009755
v -0.218694 -0.112500 -0.019134
v -0.214073 -0.112500 -0.027779
v -0.207855 -0.112500 -0.035355
v -0.200278 -0.112500 -0.041574
v -0.191634 -0.112500 -0.046194
v -0.182254 -0.112500 -0.049039
v -0.172500 -0.012500 -0.050000
v -0.172500 -0.012500 -0.050000
v -0.172500 -0.012500 0.050000
v -0.172500 -0.012500 0.050000
v -0.182254 -0.012500 -0.049039
v -0.182255 -0.012500 0.049039
v -0.191634 -0.012500 0.046194
v -0.200279 -0.012500 0.041573
v -0.207855 -0.012500 0.035355
v -0.214074 -0.012500 0.027778
v -0.218694 -0.012500 0.019134
v -0.221539 -0.012500 0.009754
v -0.222500 -0.012500 -0.000000
v -0.221539 -0.012500 -0.009755
v -0.218694 -0.012500 -0.019134
v -0.214073 -0.012500 -0.027779
v -0.207855 -0.012500 -0.035355
v -0.200278 -0.012500 -0.041574
v -0.191634 -0.012500 -0.046194
v 0.077500 -0.012500 -0.050000
v 0.077500 -0.112500 -0.050000
v 0.077500 -0.012500 -0.050000
v 0.087255 -0.012500 -0.049039
v 0.087255 -0.112500 -0.049039
v 0.096634 -0.112500 -0.046194
v 0.105279 -0.112500 -0.041573
v 0.112855 -0.112500 -0.035355
v 0.119073 -0.112500 -0.027779
v 0.123694 -0.112500 -0.019134
v 0.126539 -0.112500 -0.009755
v 0.127500 -0.112500 -0.000000
v 0.126539 -0.112500 0.009755
v 0.123694 -0.112500 0.019134
v 0.119073 -0.112500 0.027779
v 0.112855 -0.112500 0.035355
v 0.105279 -0.112500 0.041573
v 0.096634 -0.112500 0.046194
v 0.087255 -0.112500 0.049039
v 0.077500 -0.112500 0.050000
v 0.077500 -0.012500 0.050000
v 0.087255 -0.012500 0.049039
v 0.096634 -0.012500 0.046194
v 0.105279 -0.012500 0.041573
v 0.112855 -0.012500 0.035355
v 0.119073 -0.012500 0.027779
v 0.123694 -0.012500 0.019134
v 0.126539 -0.012500 0.009755
v 0.127500 -0.012500 -0.000000
v 0.126539 -0.012500 -0.009755
v 0.123694 -0.012500 -0.019134
v 0.119073 -0.012500 -0.027779
v 0.112855 -0.012500 -0.035355
v 0.105279 -0.012500 -0.041573
v 0.096634 -0.012500 -0.046194
vn -0.000000 -0.000000 1.000000
vn 0.000000 1.000000 0.000000
vn -1.000000 -0.000000 0.000000
vn 1.000000 0.000000 0.000000
vn 0.087200 0.000000 0.996200
vn 0.114800 -0.000000 -0.993400
vn 0.000000 -0.000000 -1.000000
vn -0.098000 0.000000 -0.995200
vn -0.098000 0.000000 0.995200
vn -0.290300 0.000000 0.956900
vn -0.471400 0.000000 0.881900
vn -0.634400 0.000000 0.773000
vn -0.773000 0.000000 0.634400
vn -0.881900 0.000000 0.471400
vn -0.956900 0.000000 0.290300
vn -0.995200 0.000000 0.098000
vn -0.995200 0.000000 -0.098000
vn -0.956900 0.000000 -0.290300
vn -0.881900 0.000000 -0.471400
vn -0.773000 0.000000 -0.634400
vn -0.634400 0.000000 -0.773000
vn -0.471400 0.000000 -0.881900
vn -0.290300 0.000000 -0.956900
vn 0.000000 -1.000000 -0.000000
vn 0.098000 0.000000 -0.995200
vn -0.089800 0.000000 -0.996000
vn 0.290300 0.000000 -0.956900
vn 0.471400 0.000000 -0.881900
vn 0.634400 0.000000 -0.773000
vn 0.773000 0.000000 -0.634400
vn 0.881900 0.000000 -0.471400
vn 0.956900 0.000000 -0.290300
vn 0.995200 0.000000 -0.098000
vn 0.995200 0.000000 0.098000
vn 0.956900 0.000000 0.290300
vn 0.881900 0.000000 0.471400
vn 0.773000 0.000000 0.634400
vn 0.634400 0.000000 0.773000
vn 0.471400 0.000000 0.881900
vn 0.290300 0.000000 0.956900
vn 0.098000 0.000000 0.995200
vn -0.073000 -0.000000 0.997300
usemtl Material
s off
f 8//1 9//1 10//1 5//1 3//1
f 38//2 52//2 51//2 50//2 49//2 48//2 47//2 46//2 45//2 44//2 43//2 42//2 41//2 40//2 39//2 37//2 73//2 74//2 75//2 76//2 77//2 78//2 79//2 80//2 81//2 82//2 83//2 84//2 85//2 86//2 87//2 56//2 55//2
f 12//3 7//3 6//3
f 15//4 9//4 8//4
f 5//5 10//5 37//5 17//5
f 18//6 34//6 13//6 12//6 6//6
f 18//7 13//7 55//7 4//7
f 33//8 38//8 34//8 18//8
f 17//9 37//9 39//9 19//9
f 19//10 39//10 40//10 20//10
f 20//11 40//11 41//11 21//11
f 21//12 41//12 42//12 22//12
f 22//13 42//13 43//13 23//13
f 23//14 43//14 44//14 24//14
f 24//15 44//15 45//15 25//15
f 25//16 45//16 46//16 26//16
f 26//17 46//17 47//17 27//17
f 27//18 47//18 48//18 28//18
f 28//19 48//19 49//19 29//19
f 29//20 49//20 50//20 30//20
f 30//21 50//21 51//21 31//21
f 31//22 51//22 52//22 32//22
f 32//23 52//23 38//23 33//23
f 54//24 57//24 58//24 59//24 60//24 61//24 62//24 63//24 64//24 65//24 66//24 67//24 68//24 69//24 70//24 71//24 72//24 17//24 19//24 20//24 21//24 22//24 23//24 24//24 25//24 26//24 27//24 28//24 29//24 30//24 31//24 32//24 33//24 18//24
f 54//25 55//25 56//25 57//25
f 16//26 55//26 54//26 4//26 14//26
f 57//27 56//27 87//27 58//27
f 58//28 87//28 86//28 59//28
f 59//29 86//29 85//29 60//29
f 60//30 85//30 84//30 61//30
f 61//31 84//31 83//31 62//31
f 62//32 83//32 82//32 63//32
f 63//33 82//33 81//33 64//33
f 64//34 81//34 80//34 65//34
f 65//35 80//35 79//35 66//35
f 66//36 79//36 78//36 67//36
f 67//37 78//37 77//37 68//37
f 68//38 77//38 76//38 69//38
f 69//39 76//39 75//39 70//39
f 70//40 75//40 74//40 71//40
f 71//41 74//41 73//41 72//41
f 72//42 73//42 15//42 8//42 3//42
l 2 3
l 4 1
l 5 11
l 16 13
l 4 7
l 13 35
l 36 10
l 53 16
o Cube
v 0.172500 -0.006504 -0.090406
v 0.158589 -0.012500 -0.090406
v 0.158589 -0.006504 -0.100000
v 0.170641 -0.009498 -0.090406
v 0.170641 -0.006504 -0.095197
v 0.168836 -0.009371 -0.094994
v 0.158589 -0.011699 -0.095197
v 0.165535 -0.011699 -0.090406
v 0.165241 -0.010921 -0.094994
v 0.165535 -0.006504 -0.098718
v 0.158589 -0.009498 -0.098718
v 0.165241 -0.009371 -0.097473
v 0.172500 -0.006504 0.090406
v 0.158589 -0.006504 0.100000
v 0.158589 -0.012500 0.090406
v 0.170641 -0.006504 0.095197
v 0.170641 -0.009498 0.090406
v 0.168836 -0.009371 0.094994
v 0.158589 -0.009498 0.098718
v 0.165535 -0.006504 0.098718
v 0.165241 -0.009371 0.097473
v 0.165535 -0.011699 0.090406
v 0.158589 -0.011699 0.095197
v 0.165241 -0.010921 0.094994
v -0.103589 -0.006504 0.100000
v -0.117500 -0.006504 0.090406
v -0.103589 -0.012500 0.090406
v -0.110535 -0.006504 0.098718
v -0.103589 -0.009498 0.098718
v -0.110241 -0.009371 0.097473
v -0.115641 -0.009498 0.090406
v -0.115641 -0.006504 0.095197
v -0.113836 -0.009371 0.094994
v -0.103589 -0.011699 0.095197
v -0.110535 -0.011699 0.090406
v -0.110241 -0.010921 0.094994
v -0.103589 -0.006504 -0.100000
v -0.103589 -0.012500 -0.090406
v -0.117500 -0.006504 -0.090406
v -0.103589 -0.009498 -0.098718
v -0.110535 -0.006504 -0.098718
v -0.110241 -0.009371 -0.097473
v -0.110535 -0.011699 -0.090406
v -0.103589 -0.011699 -0.095197
v -0.110241 -0.010921 -0.094994
v -0.115641 -0.006504 -0.095197
v -0.115641 -0.009498 -0.090406
v -0.113836 -0.009371 -0.094994
v 0.158589 0.106504 -0.100000
v 0.158589 0.112500 -0.090406
v 0.172500 0.106504 -0.090406
v 0.158589 0.109498 -0.098718
v 0.165535 0.106504 -0.098718
v 0.165241 0.109371 -0.097473
v 0.165535 0.111699 -0.090406
v 0.158589 0.111699 -0.095197
v 0.165241 0.110921 -0.094994
v 0.170642 0.106504 -0.095197
v 0.170642 0.109498 -0.090406
v 0.168836 0.109371 -0.094994
v 0.158589 0.106504 0.100000
v 0.172500 0.106504 0.090406
v 0.158589 0.112500 0.090406
v 0.165535 0.106504 0.098718
v 0.158589 0.109498 0.098718
v 0.165241 0.109371 0.097473
v 0.170641 0.109498 0.090406
v 0.170641 0.106504 0.095197
v 0.168836 0.109371 0.094994
v 0.158589 0.111699 0.095197
v 0.165535 0.111699 0.090406
v 0.165241 0.110921 0.094994
v -0.117500 0.106504 0.090406
v -0.103589 0.106504 0.100000
v -0.103589 0.112500 0.090406
v -0.115642 0.106504 0.095197
v -0.115642 0.109498 0.090406
v -0.113836 0.109371 0.094994
v -0.103589 0.109498 0.098718
v -0.110535 0.106504 0.098718
v -0.110241 0.109371 0.097473
v -0.110535 0.111699 0.090406
v -0.103589 0.111699 0.095197
v -0.110241 0.110921 0.094994
v -0.117500 0.106504 -0.090406
v -0.103589 0.112500 -0.090406
v -0.103589 0.106504 -0.100000
v -0.115641 0.109498 -0.090406
v -0.115641 0.106504 -0.095197
v -0.113836 0.109371 -0.094994
v -0.103589 0.111699 -0.095197
v -0.110535 0.111699 -0.090406
v -0.110241 0.110921 -0.094994
v -0.110535 0.106504 -0.098718
v -0.103589 0.109498 -0.098718
v -0.110241 0.109371 -0.097473
vn 0.000000 0.000000 -1.000000
vn -0.000000 -0.000000 1.000000
vn -1.000000 -0.000000 -0.000000
vn 0.000000 1.000000 -0.000000
vn 1.000000 0.000000 0.000000
vn 0.798700 -0.510300 -0.318900
vn 0.389500 -0.903600 -0.178200
vn 0.116200 -0.978800 -0.168500
vn 0.114600 -0.842400 -0.526500
vn 0.171200 -0.397200 -0.901600
vn 0.524300 -0.383800 -0.760200
vn 0.343300 -0.796500 -0.497800
vn 0.798700 -0.510300 0.318900
vn 0.524300 -0.383800 0.760200
vn 0.171200 -0.397200 0.901600
vn 0.114600 -0.842400 0.526500
vn 0.116200 -0.978800 0.168500
vn 0.389500 -0.903600 0.178200
vn 0.343300 -0.796500 0.497800
vn -0.171200 -0.397200 0.901600
vn -0.524300 -0.383800 0.760200
vn -0.798700 -0.510300 0.318900
vn -0.389500 -0.903600 0.178200
vn -0.116200 -0.978800 0.168500
vn -0.114600 -0.842400 0.526500
vn -0.343300 -0.796500 0.497800
vn -0.171200 -0.397200 -0.901600
vn -0.114600 -0.842400 -0.526500
vn -0.116200 -0.978800 -0.168500
vn -0.389500 -0.903600 -0.178200
vn -0.798700 -0.510300 -0.318900
vn -0.524300 -0.383800 -0.760200
vn -0.343300 -0.796500 -0.497800
vn 0.171200 0.397200 -0.901600
vn 0.114600 0.842400 -0.526500
vn 0.116200 0.978800 -0.168500
vn 0.389500 0.903600 -0.178200
vn 0.798700 0.510300 -0.318900
vn 0.524300 0.383800 -0.760200
vn 0.343300 0.796500 -0.497800
vn 0.171200 0.397200 0.901600
vn 0.524300 0.383800 0.760200
vn 0.798700 0.510300 0.318900
vn 0.389500 0.903600 0.178200
vn 0.116200 0.978800 0.168500
vn 0.114600 0.842400 0.526500
vn 0.343300 0.796500 0.497800
vn -0.798700 0.510300 0.318900
vn -0.524300 0.383800 0.760200
vn -0.171200 0.397200 0.901600
vn -0.114600 0.842400 0.526500
vn -0.116200 0.978800 0.168500
vn -0.389500 0.903600 0.178200
vn -0.343300 0.796500 0.497800
vn -0.798700 0.510300 -0.318900
vn -0.389500 0.903600 -0.178200
vn -0.116200 0.978800 -0.168500
vn -0.114600 0.842400 -0.526500
vn -0.171200 0.397200 -0.901600
vn -0.524300 0.383800 -0.760200
vn -0.343300 0.796500 -0.497800
vn 0.849600 -0.527400 -0.000000
vn 0.395800 -0.918300 -0.000000
vn 0.114600 -0.993400 0.000000
vn 0.000000 -0.986300 -0.164900
vn 0.000000 -0.848000 -0.530000
vn 0.000000 -0.393500 -0.919300
vn 0.181500 0.000000 -0.983400
vn 0.567700 -0.000000 -0.823200
vn 0.932300 -0.000000 -0.361700
vn -0.000000 -0.393500 0.919300
vn -0.000000 -0.848000 0.530000
vn -0.000000 -0.986300 0.164900
vn 0.932300 0.000000 0.361700
vn 0.567700 0.000000 0.823200
vn 0.181500 -0.000000 0.983400
vn -0.849600 -0.527400 -0.000000
vn -0.395800 -0.918300 -0.000000
vn -0.114600 -0.993400 -0.000000
vn -0.181400 0.000000 0.983400
vn -0.567700 0.000000 0.823200
vn -0.932300 -0.000000 0.361700
vn -0.932300 -0.000000 -0.361700
vn -0.567700 0.000000 -0.823200
vn -0.181500 0.000000 -0.983400
vn 0.114600 0.993400 0.000000
vn 0.395800 0.918300 0.000000
vn 0.849600 0.527400 0.000000
vn 0.000000 0.393500 -0.919300
vn 0.000000 0.848000 -0.530000
vn 0.000000 0.986300 -0.164900
vn -0.000000 0.986300 0.164900
vn -0.000000 0.848000 0.530000
vn -0.000000 0.393500 0.919300
vn -0.114600 0.993400 -0.000000
vn -0.395800 0.918300 -0.000000
vn -0.849600 0.527400 -0.000000
vn 0.000000 -1.000000 -0.000000
usemtl White
s off
f 136//43 90//43 124//43 174//43
f 101//44 148//44 161//44 112//44
f 113//45 160//45 172//45 126//45
f 137//46 173//46 162//46 150//46
f 88//47 138//47 149//47 100//47
f 88//48 91//48 93//48 92//48
f 91//49 95//49 96//49 93//49
f 89//50 94//50 96//50 95//50
f 94//51 98//51 99//51 96//51
f 90//52 97//52 99//52 98//52
f 97//53 92//53 93//53 99//53
f 93//54 96//54 99//54
f 100//55 103//55 105//55 104//55
f 103//56 107//56 108//56 105//56
f 101//57 106//57 108//57 107//57
f 106//58 110//58 111//58 108//58
f 102//59 109//59 111//59 110//59
f 109//60 104//60 105//60 111//60
f 105//61 108//61 111//61
f 112//62 115//62 117//62 116//62
f 115//63 119//63 120//63 117//63
f 113//64 118//64 120//64 119//64
f 118//65 122//65 123//65 120//65
f 114//66 121//66 123//66 122//66
f 121//67 116//67 117//67 123//67
f 117//68 120//68 123//68
f 124//69 127//69 129//69 128//69
f 127//70 131//70 132//70 129//70
f 125//71 130//71 132//71 131//71
f 130//72 134//72 135//72 132//72
f 126//73 133//73 135//73 134//73
f 133//74 128//74 129//74 135//74
f 129//75 132//75 135//75
f 136//76 139//76 141//76 140//76
f 139//77 143//77 144//77 141//77
f 137//78 142//78 144//78 143//78
f 142//79 146//79 147//79 144//79
f 138//80 145//80 147//80 146//80
f 145//81 140//81 141//81 147//81
f 141//82 144//82 147//82
f 148//83 151//83 153//83 152//83
f 151//84 155//84 156//84 153//84
f 149//85 154//85 156//85 155//85
f 154//86 158//86 159//86 156//86
f 150//87 157//87 159//87 158//87
f 157//88 152//88 153//88 159//88
f 153//89 156//89 159//89
f 160//90 163//90 165//90 164//90
f 163//91 167//91 168//91 165//91
f 161//92 166//92 168//92 167//92
f 166//93 170//93 171//93 168//93
f 162//94 169//94 171//94 170//94
f 169//95 164//95 165//95 171//95
f 165//96 168//96 171//96
f 172//97 175//97 177//97 176//97
f 175//98 179//98 180//98 177//98
f 173//99 178//99 180//99 179//99
f 178//100 182//100 183//100 180//100
f 174//101 181//101 183//101 182//101
f 181//102 176//102 177//102 183//102
f 177//103 180//103 183//103
f 88//104 100//104 104//104 91//104
f 91//105 104//105 109//105 95//105
f 95//106 109//106 102//106 89//106
f 89//107 125//107 131//107 94//107
f 94//108 131//108 127//108 98//108
f 98//109 127//109 124//109 90//109
f 90//110 136//110 140//110 97//110
f 97//111 140//111 145//111 92//111
f 92//112 145//112 138//112 88//112
f 101//113 112//113 116//113 106//113
f 106//114 116//114 121//114 110//114
f 110//115 121//115 114//115 102//115
f 100//116 149//116 155//116 103//116
f 103//117 155//117 151//117 107//117
f 107//118 151//118 148//118 101//118
f 113//119 126//119 134//119 118//119
f 118//120 134//120 130//120 122//120
f 122//121 130//121 125//121 114//121
f 112//122 161//122 167//122 115//122
f 115//123 167//123 163//123 119//123
f 119//124 163//124 160//124 113//124
f 126//125 172//125 176//125 133//125
f 133//126 176//126 181//126 128//126
f 128//127 181//127 174//127 124//127
f 137//128 150//128 158//128 142//128
f 142//129 158//129 154//129 146//129
f 146//130 154//130 149//130 138//130
f 136//131 174//131 182//131 139//131
f 139//132 182//132 178//132 143//132
f 143//133 178//133 173//133 137//133
f 150//134 162//134 170//134 157//134
f 157//135 170//135 166//135 152//135
f 152//136 166//136 161//136 148//136
f 162//137 173//137 179//137 169//137
f 169//138 179//138 175//138 164//138
f 164//139 175//139 172//139 160//139
f 89//140 102//140 114//140 125//140
