# Blender v2.76 (sub 0) OBJ File: 'rear_fork.blend'
# www.blender.org
mtllib rear_fork.mtl
o Cube
v -0.014900 -0.040000 0.175123
v 0.110100 0.025000 0.109645
v -0.014900 0.050000 0.085000
v 0.110100 0.050000 0.085000
v -0.014900 -0.040000 -0.175123
v 0.110100 0.025000 -0.109645
v -0.014900 0.050000 -0.085000
v 0.110100 0.050000 -0.085000
v -0.014900 -0.040000 0.000000
v 0.110100 0.025000 -0.000000
v -0.014900 0.050000 0.000000
v 0.110100 0.050000 -0.000000
vn 1.000000 0.000000 -0.000000
vn 0.001700 0.706400 0.707800
vn -1.000000 0.000000 0.000000
vn 0.000000 1.000000 0.000000
vn 0.461400 -0.887200 -0.000000
vn 0.001700 0.706400 -0.707800
usemtl Material
s off
f 10//1 12//1 4//1 2//1
f 3//2 1//2 2//2 4//2
f 1//3 3//3 11//3 9//3
f 3//4 4//4 12//4 11//4
f 1//5 9//5 10//5 2//5
f 10//1 6//1 8//1 12//1
f 7//6 8//6 6//6 5//6
f 5//3 9//3 11//3 7//3
f 7//4 11//4 12//4 8//4
f 5//5 6//5 10//5 9//5
o Cube.001
v 0.015000 -0.099676 0.192557
v 0.015000 0.027603 0.065277
v 0.015000 -0.078463 0.213770
v 0.015000 0.048816 0.086490
v -0.015000 -0.099676 0.192557
v -0.015000 0.027603 0.065277
v -0.015000 -0.078463 0.213770
v -0.015000 0.048816 0.086490
v 0.015000 -0.099676 -0.192557
v 0.015000 0.027603 -0.065277
v 0.015000 -0.078463 -0.213770
v 0.015000 0.048816 -0.086490
v -0.015000 -0.099676 -0.192557
v -0.015000 0.027603 -0.065277
v -0.015000 -0.078463 -0.213770
v -0.015000 0.048816 -0.086490
vn 1.000000 0.000000 -0.000000
vn 0.000000 0.707100 0.707100
vn -1.000000 -0.000000 0.000000
vn -0.000000 -0.707100 -0.707100
vn 0.000000 -0.707100 0.707100
vn -0.000000 0.707100 -0.707100
usemtl Material.001
s off
f 13//7 14//7 16//7 15//7
f 15//8 16//8 20//8 19//8
f 19//9 20//9 18//9 17//9
f 17//10 18//10 14//10 13//10
f 15//11 19//11 17//11 13//11
f 20//12 16//12 14//12 18//12
f 21//7 23//7 24//7 22//7
f 23//12 27//12 28//12 24//12
f 27//9 25//9 26//9 28//9
f 25//11 21//11 22//11 26//11
f 23//10 21//10 25//10 27//10
f 28//8 26//8 22//8 24//8
o Cube.002
v 0.015000 -0.158460 0.183769
v 0.015000 -0.078460 0.183769
v 0.015000 -0.158460 0.213769
v 0.015000 -0.078460 0.213769
v -0.015000 -0.158460 0.183769
v -0.015000 -0.078460 0.183769
v -0.015000 -0.158460 0.213769
v -0.015000 -0.078460 0.213769
v 0.015000 -0.158460 -0.183769
v 0.015000 -0.078460 -0.183769
v 0.015000 -0.158460 -0.213769
v 0.015000 -0.078460 -0.213769
v -0.015000 -0.158460 -0.183769
v -0.015000 -0.078460 -0.183769
v -0.015000 -0.158460 -0.213769
v -0.015000 -0.078460 -0.213769
vn 1.000000 0.000000 -0.000000
vn 0.000000 0.000000 1.000000
vn -1.000000 0.000000 0.000000
vn 0.000000 0.000000 -1.000000
vn 0.000000 -1.000000 0.000000
vn 0.000000 1.000000 0.000000
usemtl Material.002
s off
f 29//13 30//13 32//13 31//13
f 31//14 32//14 36//14 35//14
f 35//15 36//15 34//15 33//15
f 33//16 34//16 30//16 29//16
f 31//17 35//17 33//17 29//17
f 36//18 32//18 30//18 34//18
f 37//13 39//13 40//13 38//13
f 39//16 43//16 44//16 40//16
f 43//15 41//15 42//15 44//15
f 41//14 37//14 38//14 42//14
f 39//17 37//17 41//17 43//17
f 44//18 42//18 38//18 40//18
o Cylinder
v 0.000000 -0.150000 0.300500
v 0.000000 -0.150000 0.155500
v -0.004877 -0.150480 0.300500
v -0.004877 -0.150480 0.155500
v -0.009567 -0.151903 0.300500
v -0.009567 -0.151903 0.155500
v -0.013889 -0.154213 0.300500
v -0.013889 -0.154213 0.155500
v -0.017678 -0.157322 0.300500
v -0.017678 -0.157322 0.155500
v -0.020787 -0.161111 0.300500
v -0.020787 -0.161111 0.155500
v -0.023097 -0.165433 0.300500
v -0.023097 -0.165433 0.155500
v -0.024520 -0.170123 0.300500
v -0.024520 -0.170123 0.155500
v -0.025000 -0.175000 0.300500
v -0.025000 -0.175000 0.155500
v -0.024520 -0.179877 0.300500
v -0.024520 -0.179877 0.155500
v -0.023097 -0.184567 0.300500
v -0.023097 -0.184567 0.155500
v -0.020787 -0.188889 0.300500
v -0.020787 -0.188889 0.155500
v -0.017678 -0.192678 0.300500
v -0.017678 -0.192678 0.155500
v -0.013889 -0.195787 0.300500
v -0.013889 -0.195787 0.155500
v -0.009567 -0.198097 0.300500
v -0.009567 -0.198097 0.155500
v -0.004877 -0.199520 0.300500
v -0.004877 -0.199520 0.155500
v 0.000000 -0.200000 0.300500
v 0.000000 -0.200000 0.155500
v 0.004877 -0.199520 0.300500
v 0.004877 -0.199520 0.155500
v 0.009567 -0.198097 0.300500
v 0.009567 -0.198097 0.155500
v 0.013889 -0.195787 0.300500
v 0.013889 -0.195787 0.155500
v 0.017678 -0.192678 0.300500
v 0.017678 -0.192678 0.155500
v 0.020787 -0.188889 0.300500
v 0.020787 -0.188889 0.155500
v 0.023097 -0.184567 0.300500
v 0.023097 -0.184567 0.155500
v 0.024520 -0.179877 0.300500
v 0.024520 -0.179877 0.155500
v 0.025000 -0.175000 0.300500
v 0.025000 -0.175000 0.155500
v 0.024520 -0.170123 0.300500
v 0.024520 -0.170123 0.155500
v 0.023097 -0.165433 0.300500
v 0.023097 -0.165433 0.155500
v 0.020787 -0.161111 0.300500
v 0.020787 -0.161111 0.155500
v 0.017678 -0.157322 0.300500
v 0.017678 -0.157322 0.155500
v 0.013889 -0.154213 0.300500
v 0.013889 -0.154213 0.155500
v 0.009567 -0.151903 0.300500
v 0.009567 -0.151903 0.155500
v 0.004877 -0.150480 0.300500
v 0.004877 -0.150480 0.155500
v -0.000000 -0.150000 -0.300500
v -0.000000 -0.150000 -0.155500
v -0.004877 -0.150480 -0.300500
v -0.004877 -0.150480 -0.155500
v -0.009567 -0.151903 -0.300500
v -0.009567 -0.151903 -0.155500
v -0.013889 -0.154213 -0.300500
v -0.013889 -0.154213 -0.155500
v -0.017678 -0.157322 -0.300500
v -0.017678 -0.157322 -0.155500
v -0.020787 -0.161111 -0.300500
v -0.020787 -0.161111 -0.155500
v -0.023097 -0.165433 -0.300500
v -0.023097 -0.165433 -0.155500
v -0.024520 -0.170123 -0.300500
v -0.024520 -0.170123 -0.155500
v -0.025000 -0.175000 -0.300500
v -0.025000 -0.175000 -0.155500
v -0.024520 -0.179877 -0.300500
v -0.024520 -0.179877 -0.155500
v -0.023097 -0.184567 -0.300500
v -0.023097 -0.184567 -0.155500
v -0.020787 -0.188889 -0.300500
v -0.020787 -0.188889 -0.155500
v -0.017678 -0.192678 -0.300500
v -0.017678 -0.192678 -0.155500
v -0.013889 -0.195787 -0.300500
v -0.013889 -0.195787 -0.155500
v -0.009567 -0.198097 -0.300500
v -0.009567 -0.198097 -0.155500
v -0.004877 -0.199520 -0.300500
v -0.004877 -0.199520 -0.155500
v -0.000000 -0.200000 -0.300500
v -0.000000 -0.200000 -0.155500
v 0.004877 -0.199520 -0.300500
v 0.004877 -0.199520 -0.155500
v 0.009567 -0.198097 -0.300500
v 0.009567 -0.198097 -0.155500
v 0.013889 -0.195787 -0.300500
v 0.013889 -0.195787 -0.155500
v 0.017678 -0.192678 -0.300500
v 0.017678 -0.192678 -0.155500
v 0.020787 -0.188889 -0.300500
v 0.020787 -0.188889 -0.155500
v 0.023097 -0.184567 -0.300500
v 0.023097 -0.184567 -0.155500
v 0.024520 -0.179877 -0.300500
v 0.024520 -0.179877 -0.155500
v 0.025000 -0.175000 -0.300500
v 0.025000 -0.175000 -0.155500
v 0.024520 -0.170123 -0.300500
v 0.024520 -0.170123 -0.155500
v 0.023097 -0.165433 -0.300500
v 0.023097 -0.165433 -0.155500
v 0.020787 -0.161111 -0.300500
v 0.020787 -0.161111 -0.155500
v 0.017678 -0.157322 -0.300500
v 0.017678 -0.157322 -0.155500
v 0.013889 -0.154213 -0.300500
v 0.013889 -0.154213 -0.155500
v 0.009567 -0.151903 -0.300500
v 0.009567 -0.151903 -0.155500
v 0.004877 -0.150480 -0.300500
v 0.004877 -0.150480 -0.155500
vn -0.098000 0.995200 -0.000000
vn -0.290300 0.956900 -0.000000
vn -0.471400 0.881900 -0.000000
vn -0.634400 0.773000 0.000000
vn -0.773000 0.634400 0.000000
vn -0.881900 0.471400 0.000000
vn -0.956900 0.290300 0.000000
vn -0.995200 0.098000 0.000000
vn -0.995200 -0.098000 0.000000
vn -0.956900 -0.290300 0.000000
vn -0.881900 -0.471400 0.000000
vn -0.773000 -0.634400 0.000000
vn -0.634400 -0.773000 0.000000
vn -0.471400 -0.881900 0.000000
vn -0.290300 -0.956900 0.000000
vn -0.098000 -0.995200 0.000000
vn 0.098000 -0.995200 0.000000
vn 0.290300 -0.956900 0.000000
vn 0.471400 -0.881900 0.000000
vn 0.634400 -0.773000 0.000000
vn 0.773000 -0.634400 0.000000
vn 0.881900 -0.471400 -0.000000
vn 0.956900 -0.290300 -0.000000
vn 0.995200 -0.098000 -0.000000
vn 0.995200 0.098000 -0.000000
vn 0.956900 0.290300 -0.000000
vn 0.881900 0.471400 -0.000000
vn 0.773000 0.634400 -0.000000
vn 0.634400 0.773000 -0.000000
vn 0.471400 0.881900 -0.000000
vn -0.000000 -0.000000 -1.000000
vn 0.290300 0.956900 -0.000000
vn 0.098000 0.995200 -0.000000
vn 0.000000 0.000000 1.000000
usemtl Material.003
s off
f 45//19 46//19 48//19 47//19
f 47//20 48//20 50//20 49//20
f 49//21 50//21 52//21 51//21
f 51//22 52//22 54//22 53//22
f 53//23 54//23 56//23 55//23
f 55//24 56//24 58//24 57//24
f 57//25 58//25 60//25 59//25
f 59//26 60//26 62//26 61//26
f 61//27 62//27 64//27 63//27
f 63//28 64//28 66//28 65//28
f 65//29 66//29 68//29 67//29
f 67//30 68//30 70//30 69//30
f 69//31 70//31 72//31 71//31
f 71//32 72//32 74//32 73//32
f 73//33 74//33 76//33 75//33
f 75//34 76//34 78//34 77//34
f 77//35 78//35 80//35 79//35
f 79//36 80//36 82//36 81//36
f 81//37 82//37 84//37 83//37
f 83//38 84//38 86//38 85//38
f 85//39 86//39 88//39 87//39
f 87//40 88//40 90//40 89//40
f 89//41 90//41 92//41 91//41
f 91//42 92//42 94//42 93//42
f 93//43 94//43 96//43 95//43
f 95//44 96//44 98//44 97//44
f 97//45 98//45 100//45 99//45
f 99//46 100//46 102//46 101//46
f 101//47 102//47 104//47 103//47
f 103//48 104//48 106//48 105//48
f 48//49 46//49 108//49 106//49 104//49 102//49 100//49 98//49 96//49 94//49 92//49 90//49 88//49 86//49 84//49 82//49 80//49 78//49 76//49 74//49 72//49 70//49 68//49 66//49 64//49 62//49 60//49 58//49 56//49 54//49 52//49 50//49
f 105//50 106//50 108//50 107//50
f 107//51 108//51 46//51 45//51
f 45//52 47//52 49//52 51//52 53//52 55//52 57//52 59//52 61//52 63//52 65//52 67//52 69//52 71//52 73//52 75//52 77//52 79//52 81//52 83//52 85//52 87//52 89//52 91//52 93//52 95//52 97//52 99//52 101//52 103//52 105//52 107//52
f 109//19 111//19 112//19 110//19
f 111//20 113//20 114//20 112//20
f 113//21 115//21 116//21 114//21
f 115//22 117//22 118//22 116//22
f 117//23 119//23 120//23 118//23
f 119//24 121//24 122//24 120//24
f 121//25 123//25 124//25 122//25
f 123//26 125//26 126//26 124//26
f 125//27 127//27 128//27 126//27
f 127//28 129//28 130//28 128//28
f 129//29 131//29 132//29 130//29
f 131//30 133//30 134//30 132//30
f 133//31 135//31 136//31 134//31
f 135//32 137//32 138//32 136//32
f 137//33 139//33 140//33 138//33
f 139//34 141//34 142//34 140//34
f 141//35 143//35 144//35 142//35
f 143//36 145//36 146//36 144//36
f 145//37 147//37 148//37 146//37
f 147//38 149//38 150//38 148//38
f 149//39 151//39 152//39 150//39
f 151//40 153//40 154//40 152//40
f 153//41 155//41 156//41 154//41
f 155//42 157//42 158//42 156//42
f 157//43 159//43 160//43 158//43
f 159//44 161//44 162//44 160//44
f 161//45 163//45 164//45 162//45
f 163//46 165//46 166//46 164//46
f 165//47 167//47 168//47 166//47
f 167//48 169//48 170//48 168//48
f 112//52 114//52 116//52 118//52 120//52 122//52 124//52 126//52 128//52 130//52 132//52 134//52 136//52 138//52 140//52 142//52 144//52 146//52 148//52 150//52 152//52 154//52 156//52 158//52 160//52 162//52 164//52 166//52 168//52 170//52 172//52 110//52
f 169//50 171//50 172//50 170//50
f 171//51 109//51 110//51 172//51
f 109//49 171//49 169//49 167//49 165//49 163//49 161//49 159//49 157//49 155//49 153//49 151//49 149//49 147//49 145//49 143//49 141//49 139//49 137//49 135//49 133//49 131//49 129//49 127//49 125//49 123//49 121//49 119//49 117//49 115//49 113//49 111//49
