# Blender v2.76 (sub 0) OBJ File: 'sea.blend'
# www.blender.org
mtllib sea.mtl
o Cube
v -0.050000 -0.060000 0.050000
v -0.050000 -0.060000 -0.050000
v 0.050000 -0.060000 0.050000
v 0.050000 -0.060000 -0.050000
v -0.050000 0.068386 0.014567
v -0.050000 0.068386 -0.014567
v -0.050000 0.071333 0.007883
v -0.050000 0.072368 0.000000
v -0.050000 0.071333 -0.007883
v 0.050000 0.068386 -0.014567
v 0.050000 0.068386 0.014567
v 0.050000 0.071333 -0.007883
v 0.050000 0.072368 0.000000
v 0.050000 0.071333 0.007883
v -0.050000 0.037228 0.050000
v -0.050000 0.048745 0.044325
v -0.050000 0.041616 0.049240
v -0.050000 0.045831 0.047163
v -0.050000 0.048745 -0.044325
v -0.050000 0.037228 -0.050000
v -0.050000 0.045831 -0.047163
v -0.050000 0.041616 -0.049240
v 0.050000 0.048745 0.044325
v 0.050000 0.037228 0.050000
v 0.050000 0.045831 0.047163
v 0.050000 0.041616 0.049240
v 0.050000 0.037228 -0.050000
v 0.050000 0.048745 -0.044325
v 0.050000 0.041616 -0.049240
v 0.050000 0.045831 -0.047163
vn -1.000000 0.000000 0.000000
vn 0.000000 0.834600 -0.550800
vn 0.000000 0.834600 0.550800
vn 0.000000 -1.000000 0.000000
vn 1.000000 0.000000 0.000000
vn 0.000000 0.915000 0.403500
vn 0.000000 0.991500 0.130200
vn 0.000000 0.991500 -0.130200
vn 0.000000 0.915000 -0.403500
vn 0.000000 0.000000 -1.000000
vn 0.000000 0.697600 -0.716400
vn 0.000000 0.442000 -0.897000
vn 0.000000 0.170700 -0.985300
vn 0.000000 0.697600 0.716400
vn 0.000000 0.442000 0.897000
vn 0.000000 0.170700 0.985300
vn 0.000000 0.000000 1.000000
usemtl Material
s off
f 15//1 17//1 18//1 16//1 5//1 7//1 8//1 9//1 6//1 19//1 21//1 22//1 20//1 2//1 1//1
f 6//2 10//2 28//2 19//2
f 11//3 5//3 16//3 23//3
f 1//4 2//4 4//4 3//4
f 27//5 29//5 30//5 28//5 10//5 12//5 13//5 14//5 11//5 23//5 25//5 26//5 24//5 3//5 4//5
f 5//6 11//6 14//6 7//6
f 7//7 14//7 13//7 8//7
f 8//8 13//8 12//8 9//8
f 9//9 12//9 10//9 6//9
f 20//10 27//10 4//10 2//10
f 19//11 28//11 30//11 21//11
f 21//12 30//12 29//12 22//12
f 22//13 29//13 27//13 20//13
f 23//14 16//14 18//14 25//14
f 25//15 18//15 17//15 26//15
f 26//16 17//16 15//16 24//16
f 24//17 15//17 1//17 3//17
